<svg xmlns="http://www.w3.org/2000/svg" viewBox="0 0 32 32" height="64" width="64"><title>real-estate-building-2</title><g><path d="M27.43,30.47V3.04H25.91V1.52h1.52V3.04h1.52V0H3.05V3.04H4.57V1.52H6.1V3.04H4.57V30.47H1.52V32H30.48V30.47ZM22.86,1.52h1.52V3.04H22.86Zm-3.05,0h1.52V3.04H19.81Zm-3.05,0h1.53V3.04H16.76Zm-3.05,0h1.53V3.04H13.71Zm-3.04,0h1.52V3.04H10.67Zm-3.05,0H9.14V3.04H7.62Zm3.05,28.95H6.1V25.9h4.57Zm0-6.09H6.1V22.85h4.57Zm4.57,6.09H12.19V22.85h3.05Zm4.57,0H16.76V22.85h3.05Zm6.1,0H21.33V25.9h4.58Zm0-6.09H21.33V22.85h4.58Zm0-3.05H6.1V4.57H25.91Z" fill="#000000"></path><path d="M24.38,13.71H19.81v6.1h4.57Zm-1.52,3.05H21.33V15.24h1.53Z" fill="#000000"></path><path d="M24.38,12.19V6.09H19.81v6.1ZM21.33,7.62h1.53V9.14H21.33Z" fill="#000000"></path><path d="M18.29,13.71H13.71v6.1h4.58Zm-1.53,3.05H15.24V15.24h1.52Z" fill="#000000"></path><path d="M18.29,12.19V6.09H13.71v6.1ZM15.24,7.62h1.52V9.14H15.24Z" fill="#000000"></path><path d="M12.19,13.71H7.62v6.1h4.57Zm-1.52,3.05H9.14V15.24h1.53Z" fill="#000000"></path><path d="M12.19,12.19V6.09H7.62v6.1ZM9.14,7.62h1.53V9.14H9.14Z" fill="#000000"></path></g></svg>