<svg xmlns="http://www.w3.org/2000/svg" viewBox="0 0 32 32" height="64" width="64"><title>business-product-target</title><g><rect x="30.47" y="12.19" width="1.53" height="7.62" fill="#000000"></rect><polygon points="28.95 3.05 28.95 0 27.43 0 27.43 1.52 25.9 1.52 25.9 3.05 24.38 3.05 24.38 7.62 28.95 7.62 28.95 6.1 30.47 6.1 30.47 4.57 32 4.57 32 3.05 28.95 3.05" fill="#000000"></polygon><rect x="28.95" y="19.81" width="1.52" height="3.05" fill="#000000"></rect><rect x="28.95" y="9.14" width="1.52" height="3.05" fill="#000000"></rect><rect x="27.43" y="22.86" width="1.52" height="3.05" fill="#000000"></rect><rect x="25.9" y="25.91" width="1.53" height="1.52" fill="#000000"></rect><rect x="22.86" y="27.43" width="3.04" height="1.52" fill="#000000"></rect><rect x="22.86" y="7.62" width="1.52" height="1.52" fill="#000000"></rect><rect x="21.33" y="9.14" width="1.53" height="1.53" fill="#000000"></rect><rect x="19.81" y="28.95" width="3.05" height="1.53" fill="#000000"></rect><rect x="19.81" y="13.72" width="1.52" height="4.57" fill="#000000"></rect><rect x="19.81" y="10.67" width="1.52" height="1.52" fill="#000000"></rect><rect x="19.81" y="1.52" width="3.05" height="1.53" fill="#000000"></rect><rect x="18.28" y="18.29" width="1.53" height="1.52" fill="#000000"></rect><rect x="18.28" y="12.19" width="1.53" height="1.53" fill="#000000"></rect><rect x="12.19" y="30.48" width="7.62" height="1.52" fill="#000000"></rect><rect x="16.76" y="13.72" width="1.52" height="1.52" fill="#000000"></rect><rect x="13.71" y="19.81" width="4.57" height="1.52" fill="#000000"></rect><rect x="15.24" y="15.24" width="1.52" height="1.52" fill="#000000"></rect><rect x="13.71" y="10.67" width="4.57" height="1.52" fill="#000000"></rect><rect x="12.19" width="7.62" height="1.52" fill="#000000"></rect><rect x="12.19" y="18.29" width="1.52" height="1.52" fill="#000000"></rect><rect x="12.19" y="12.19" width="1.52" height="1.53" fill="#000000"></rect><rect x="9.14" y="28.95" width="3.05" height="1.53" fill="#000000"></rect><rect x="10.66" y="13.72" width="1.53" height="4.57" fill="#000000"></rect><rect x="9.14" y="1.52" width="3.05" height="1.53" fill="#000000"></rect><rect x="6.09" y="27.43" width="3.05" height="1.52" fill="#000000"></rect><rect x="6.09" y="3.05" width="3.05" height="1.52" fill="#000000"></rect><polygon points="7.62 12.19 9.14 12.19 9.14 9.14 12.19 9.14 12.19 7.62 21.33 7.62 21.33 6.1 19.81 6.1 19.81 4.57 12.19 4.57 12.19 6.1 9.14 6.1 9.14 7.62 7.62 7.62 7.62 9.14 6.09 9.14 6.09 12.19 4.57 12.19 4.57 19.81 6.09 19.81 6.09 22.86 7.62 22.86 7.62 24.38 9.14 24.38 9.14 25.91 12.19 25.91 12.19 27.43 19.81 27.43 19.81 25.91 22.86 25.91 22.86 24.38 24.38 24.38 24.38 22.86 25.9 22.86 25.9 19.81 27.43 19.81 27.43 12.19 25.9 12.19 25.9 10.67 24.38 10.67 24.38 19.81 22.86 19.81 22.86 22.86 21.33 22.86 21.33 24.38 12.19 24.38 12.19 22.86 9.14 22.86 9.14 19.81 7.62 19.81 7.62 12.19" fill="#000000"></polygon><rect x="4.57" y="25.91" width="1.52" height="1.52" fill="#000000"></rect><rect x="4.57" y="4.57" width="1.52" height="1.53" fill="#000000"></rect><rect x="3.05" y="22.86" width="1.52" height="3.05" fill="#000000"></rect><rect x="3.05" y="6.1" width="1.52" height="3.04" fill="#000000"></rect><rect x="1.52" y="19.81" width="1.53" height="3.05" fill="#000000"></rect><rect x="1.52" y="9.14" width="1.53" height="3.05" fill="#000000"></rect><rect y="12.19" width="1.52" height="7.62" fill="#000000"></rect></g></svg>