<svg xmlns="http://www.w3.org/2000/svg" viewBox="0 0 32 32" height="64" width="64"><title>phone-incoming-call</title><g><polygon points="30.48 18.29 21.33 18.29 21.33 21.33 22.86 21.33 22.86 22.86 30.48 22.86 30.48 25.9 32 25.9 32 15.24 30.48 15.24 30.48 18.29" fill="#000000"></polygon><rect x="28.95" y="25.9" width="1.53" height="1.53" fill="#000000"></rect><rect x="28.95" y="13.71" width="1.53" height="1.53" fill="#000000"></rect><rect x="27.43" y="12.19" width="1.52" height="1.52" fill="#000000"></rect><polygon points="27.43 25.9 25.9 25.9 25.9 27.43 24.38 27.43 24.38 28.95 28.95 28.95 28.95 27.43 27.43 27.43 27.43 25.9" fill="#000000"></polygon><rect x="24.38" y="24.38" width="1.52" height="1.52" fill="#000000"></rect><rect x="24.38" y="1.52" width="1.52" height="1.53" fill="#000000"></rect><rect x="22.86" y="25.9" width="1.52" height="1.53" fill="#000000"></rect><rect x="22.86" y="3.05" width="1.52" height="1.52" fill="#000000"></rect><rect x="19.81" y="28.95" width="4.57" height="1.53" fill="#000000"></rect><rect x="21.33" y="4.57" width="1.53" height="1.53" fill="#000000"></rect><rect x="10.67" y="16.76" width="10.66" height="1.53" fill="#000000"></rect><rect x="15.24" y="1.52" width="1.52" height="4.58" fill="#000000"></rect><rect x="9.14" y="4.57" width="1.53" height="1.53" fill="#000000"></rect><polygon points="1.52 18.29 1.52 15.24 0 15.24 0 21.33 1.52 21.33 1.52 22.86 9.14 22.86 9.14 21.33 10.67 21.33 10.67 18.29 1.52 18.29" fill="#000000"></polygon><rect x="7.62" y="3.05" width="1.52" height="1.52" fill="#000000"></rect><rect x="4.57" y="10.67" width="22.86" height="1.52" fill="#000000"></rect><rect x="6.09" y="1.52" width="1.53" height="1.53" fill="#000000"></rect><rect x="3.05" y="12.19" width="1.52" height="1.52" fill="#000000"></rect><rect x="1.52" y="13.71" width="1.53" height="1.53" fill="#000000"></rect></g></svg>