<svg xmlns="http://www.w3.org/2000/svg" viewBox="0 0 32 32" height="64" width="64"><title>design-vectors-pen-new-anchor</title><g><polygon points="28.955 12.19 27.435 12.19 27.435 10.66 25.905 10.66 25.905 12.19 24.385 12.19 24.385 13.71 22.865 13.71 22.865 15.24 24.385 15.24 24.385 16.76 25.905 16.76 25.905 18.28 27.435 18.28 27.435 16.76 28.955 16.76 28.955 15.24 30.475 15.24 30.475 13.71 28.955 13.71 28.955 12.19" fill="#000000"></polygon><rect x="22.865" y="10.66" width="1.52" height="1.53" fill="#000000"></rect><rect x="21.335" y="19.81" width="1.53" height="6.09" fill="#000000"></rect><rect x="21.335" y="9.14" width="1.53" height="1.52" fill="#000000"></rect><rect x="19.815" y="25.9" width="1.52" height="1.53" fill="#000000"></rect><rect x="19.815" y="18.28" width="1.52" height="1.53" fill="#000000"></rect><rect x="19.815" y="7.62" width="1.52" height="1.52" fill="#000000"></rect><rect x="18.285" y="15.24" width="1.53" height="3.04" fill="#000000"></rect><rect x="18.285" y="6.09" width="1.53" height="1.53" fill="#000000"></rect><polygon points="19.815 4.57 19.815 3.05 18.285 3.05 18.285 1.52 16.765 1.52 16.765 0 15.245 0 15.245 1.52 13.715 1.52 13.715 3.05 12.195 3.05 12.195 4.57 13.715 4.57 13.715 6.09 15.245 6.09 15.245 7.62 16.765 7.62 16.765 6.09 18.285 6.09 18.285 4.57 19.815 4.57" fill="#000000"></polygon><polygon points="12.195 27.43 12.195 30.47 10.675 30.47 10.675 32 21.335 32 21.335 30.47 19.815 30.47 19.815 27.43 12.195 27.43" fill="#000000"></polygon><rect x="16.765" y="12.19" width="1.52" height="3.05" fill="#000000"></rect><polygon points="15.245 19.81 13.715 19.81 13.715 21.33 12.195 21.33 12.195 22.85 13.715 22.85 13.715 24.38 15.245 24.38 15.245 25.9 16.765 25.9 16.765 24.38 18.285 24.38 18.285 22.85 19.815 22.85 19.815 21.33 18.285 21.33 18.285 19.81 16.765 19.81 16.765 15.24 15.245 15.24 15.245 19.81" fill="#000000"></polygon><rect x="15.245" y="10.66" width="1.52" height="1.53" fill="#000000"></rect><rect x="13.715" y="12.19" width="1.53" height="3.05" fill="#000000"></rect><rect x="12.195" y="15.24" width="1.52" height="3.04" fill="#000000"></rect><rect x="12.195" y="6.09" width="1.52" height="1.53" fill="#000000"></rect><rect x="10.675" y="25.9" width="1.52" height="1.53" fill="#000000"></rect><rect x="10.675" y="18.28" width="1.52" height="1.53" fill="#000000"></rect><rect x="10.675" y="7.62" width="1.52" height="1.52" fill="#000000"></rect><rect x="9.145" y="19.81" width="1.53" height="6.09" fill="#000000"></rect><rect x="9.145" y="9.14" width="1.53" height="1.52" fill="#000000"></rect><rect x="7.625" y="10.66" width="1.52" height="1.53" fill="#000000"></rect><polygon points="6.095 10.66 4.575 10.66 4.575 12.19 3.055 12.19 3.055 13.71 1.525 13.71 1.525 15.24 3.055 15.24 3.055 16.76 4.575 16.76 4.575 18.28 6.095 18.28 6.095 16.76 7.625 16.76 7.625 15.24 9.145 15.24 9.145 13.71 7.625 13.71 7.625 12.19 6.095 12.19 6.095 10.66" fill="#000000"></polygon></g></svg>