<svg xmlns="http://www.w3.org/2000/svg" viewBox="0 0 32 32" height="64" width="64"><title>interface-essential-question-help-circle-1</title><path d="M30.48,9.14H28.95V6.09H27.43V4.57H25.9V3.05H22.86V1.52H19.81V0H12.19V1.52H9.14V3.05H6.09V4.57H4.57V6.09H3.05V9.14H1.52v3.05H0v7.62H1.52v3.05H3.05V25.9H4.57v1.53H6.09v1.52H9.14v1.53h3.05V32h7.62V30.48h3.05V28.95H25.9V27.43h1.53V25.9h1.52V22.86h1.53V19.81H32V12.19H30.48ZM19.81,25.9H18.29v1.53H13.71V25.9H12.19V21.33h1.52V19.81h4.58v1.52h1.52Zm4.57-13.71H22.86v1.52H21.33v1.53H19.81v1.52H18.29v1.53H13.71V15.24h1.53V13.71h1.52V12.19h1.53V9.14H16.76V7.62H13.71V9.14H12.19v3.05H7.62V7.62H9.14V6.09h1.53V4.57h1.52V3.05h7.62V4.57h1.52V6.09h1.53V7.62h1.52Z" fill="#000000"></path></svg>