<svg xmlns="http://www.w3.org/2000/svg" viewBox="0 0 32 32" height="64" width="64"><title>interface-essential-global-public</title><g><polygon points="22.85 7.62 22.85 10.67 21.33 10.67 21.33 15.24 22.85 15.24 22.85 16.76 24.38 16.76 24.38 18.29 19.81 18.29 19.81 19.81 18.28 19.81 18.28 21.33 22.85 21.33 22.85 24.38 21.33 24.38 21.33 27.43 22.85 27.43 22.85 28.95 25.9 28.95 25.9 27.43 27.43 27.43 27.43 25.9 28.95 25.9 28.95 22.86 30.47 22.86 30.47 19.81 32 19.81 32 12.19 30.47 12.19 30.47 9.14 28.95 9.14 28.95 6.1 27.43 6.1 27.43 7.62 22.85 7.62" fill="#000000"></polygon><rect x="25.9" y="4.57" width="1.53" height="1.53" fill="#000000"></rect><rect x="22.85" y="3.05" width="3.05" height="1.52" fill="#000000"></rect><rect x="19.81" y="28.95" width="3.04" height="1.53" fill="#000000"></rect><rect x="19.81" y="1.52" width="3.04" height="1.53" fill="#000000"></rect><polygon points="16.76 28.95 15.24 28.95 15.24 27.43 10.66 27.43 10.66 28.95 9.14 28.95 9.14 30.48 12.19 30.48 12.19 32 19.81 32 19.81 30.48 16.76 30.48 16.76 28.95" fill="#000000"></polygon><rect x="12.19" width="7.62" height="1.52" fill="#000000"></rect><polygon points="10.66 16.76 12.19 16.76 12.19 18.29 13.71 18.29 13.71 13.71 10.66 13.71 10.66 16.76" fill="#000000"></polygon><rect x="6.09" y="27.43" width="3.05" height="1.52" fill="#000000"></rect><rect x="4.57" y="25.9" width="1.52" height="1.53" fill="#000000"></rect><polygon points="3.05 22.86 3.05 25.9 4.57 25.9 4.57 24.38 6.09 24.38 6.09 22.86 7.62 22.86 7.62 18.29 6.09 18.29 6.09 16.76 4.57 16.76 4.57 15.24 3.05 15.24 3.05 13.71 4.57 13.71 4.57 12.19 9.14 12.19 9.14 10.67 10.66 10.67 10.66 9.14 12.19 9.14 12.19 10.67 13.71 10.67 13.71 9.14 15.24 9.14 15.24 6.1 13.71 6.1 13.71 4.57 10.66 4.57 10.66 3.05 12.19 3.05 12.19 1.52 9.14 1.52 9.14 3.05 6.09 3.05 6.09 4.57 4.57 4.57 4.57 6.1 3.05 6.1 3.05 9.14 1.52 9.14 1.52 12.19 0 12.19 0 19.81 1.52 19.81 1.52 22.86 3.05 22.86" fill="#000000"></polygon></g></svg>