<svg xmlns="http://www.w3.org/2000/svg" viewBox="0 0 32 32" height="64" width="64"><title>hand-little-finger</title><g><rect x="26.67" y="3.055" width="1.52" height="19.81" fill="#000000"></rect><path d="M25.15,25.905H9.91v-1.52H8.38v1.52H6.86v4.57H28.19v-4.57H26.67v-3.04H25.15Zm0,3.05H22.1v-1.52h3.05Z" fill="#000000"></path><rect x="23.62" y="1.525" width="3.05" height="1.53" fill="#000000"></rect><rect x="19.05" y="16.765" width="3.05" height="1.52" fill="#000000"></rect><rect x="11.43" y="18.285" width="4.57" height="1.53" fill="#000000"></rect><polygon points="12.95 12.195 11.43 12.195 11.43 13.715 14.48 13.715 14.48 9.145 17.53 9.145 17.53 13.715 14.48 13.715 14.48 15.245 16 15.245 16 18.285 17.53 18.285 17.53 16.765 19.05 16.765 19.05 9.145 22.1 9.145 22.1 16.765 23.62 16.765 23.62 3.055 22.1 3.055 22.1 7.625 9.91 7.625 9.91 9.145 12.95 9.145 12.95 12.195" fill="#000000"></polygon><rect x="9.91" y="16.765" width="1.52" height="1.52" fill="#000000"></rect><polygon points="11.43 12.195 11.43 10.665 9.91 10.665 9.91 9.145 8.38 9.145 8.38 10.665 6.86 10.665 6.86 12.195 11.43 12.195" fill="#000000"></polygon><rect x="6.86" y="22.865" width="1.52" height="1.52" fill="#000000"></rect><rect x="5.34" y="19.815" width="1.52" height="3.05" fill="#000000"></rect><rect x="5.34" y="12.195" width="1.52" height="1.52" fill="#000000"></rect><rect x="3.81" y="13.715" width="1.53" height="6.1" fill="#000000"></rect></g></svg>