<svg xmlns="http://www.w3.org/2000/svg" viewBox="0 0 32 32" height="64" width="64"><title>shopping-shipping-shop</title><g><path d="M30.47,12.19H25.9V9.14h4.57V6.1H28.95V7.62H25.9V6.1H24.38V7.62H19.8V4.57H18.28V7.62H13.71V4.57H12.19V7.62H7.61V6.1H6.09V7.62H3.04V6.1H1.52V9.14H6.09v3.05H1.52V9.14H0v4.58H1.52V30.48H0V32H32V30.48H30.47V13.72H32V9.14H30.47ZM19.8,9.14h4.58v3.05H19.8Zm-6.09,0h4.57v3.05H13.71Zm-6.1,0h4.58v3.05H7.61ZM28.95,30.48H15.23V16.76H13.71V30.48H6.09V16.76H4.57V30.48H3.04V13.72H28.95Z" fill="#000000"></path><rect x="27.42" y="4.57" width="1.53" height="1.53" fill="#000000"></rect><path d="M27.42,16.76H25.9v3.05H22.85V16.76H25.9V15.24H18.28v1.52h3.05v3.05H18.28V16.76H16.76v9.15H27.42Zm-6.09,7.62H18.28V21.33h3.05Zm4.57,0H22.85V21.33H25.9Z" fill="#000000"></path><rect x="25.9" y="3.05" width="1.52" height="1.52" fill="#000000"></rect><rect x="22.85" y="4.57" width="1.53" height="1.53" fill="#000000"></rect><rect x="6.09" y="15.24" width="7.62" height="1.52" fill="#000000"></rect><rect x="7.61" y="21.33" width="1.53" height="3.05" fill="#000000"></rect><rect x="7.61" y="4.57" width="1.53" height="1.53" fill="#000000"></rect><polygon points="9.14 4.57 10.66 4.57 10.66 3.05 13.71 3.05 13.71 4.57 15.23 4.57 15.23 3.05 16.76 3.05 16.76 4.57 18.28 4.57 18.28 3.05 21.33 3.05 21.33 4.57 22.85 4.57 22.85 3.05 25.9 3.05 25.9 0 6.09 0 6.09 3.05 9.14 3.05 9.14 4.57" fill="#000000"></polygon><rect x="4.57" y="3.05" width="1.52" height="1.52" fill="#000000"></rect><rect x="3.04" y="4.57" width="1.53" height="1.53" fill="#000000"></rect></g></svg>