<svg xmlns="http://www.w3.org/2000/svg" viewBox="0 0 32 32" height="64" width="64"><title>multiple-user</title><g><rect x="30.48" y="18.285" width="1.52" height="1.53" fill="#000000"></rect><rect x="27.43" y="16.765" width="3.05" height="1.52" fill="#000000"></rect><rect x="27.43" y="13.715" width="1.52" height="1.53" fill="#000000"></rect><polygon points="22.86 15.245 22.86 12.195 21.34 12.195 21.34 10.665 19.81 10.665 19.81 7.625 21.34 7.625 21.34 6.095 27.43 6.095 27.43 7.625 28.95 7.625 28.95 13.715 30.48 13.715 30.48 4.575 28.95 4.575 28.95 3.045 27.43 3.045 27.43 1.525 21.34 1.525 21.34 3.045 19.81 3.045 19.81 4.575 18.29 4.575 18.29 9.145 13.72 9.145 13.72 4.575 12.19 4.575 12.19 3.045 10.67 3.045 10.67 1.525 4.57 1.525 4.57 3.045 3.05 3.045 3.05 4.575 1.53 4.575 1.53 13.715 3.05 13.715 3.05 7.625 4.57 7.625 4.57 6.095 10.67 6.095 10.67 7.625 12.19 7.625 12.19 10.665 10.67 10.665 10.67 12.195 9.15 12.195 9.15 15.245 4.57 15.245 4.57 16.765 9.15 16.765 9.15 22.855 10.67 22.855 10.67 15.245 12.19 15.245 12.19 13.715 19.81 13.715 19.81 15.245 21.34 15.245 21.34 22.855 22.86 22.855 22.86 16.765 27.43 16.765 27.43 15.245 22.86 15.245" fill="#000000"></polygon><rect x="24.38" y="28.955" width="1.53" height="1.52" fill="#000000"></rect><rect x="22.86" y="27.435" width="1.52" height="1.52" fill="#000000"></rect><rect x="19.81" y="25.905" width="3.05" height="1.53" fill="#000000"></rect><rect x="19.81" y="22.855" width="1.53" height="1.53" fill="#000000"></rect><rect x="18.29" y="16.765" width="1.52" height="3.05" fill="#000000"></rect><rect x="12.19" y="24.385" width="7.62" height="1.52" fill="#000000"></rect><rect x="13.72" y="21.335" width="4.57" height="1.52" fill="#000000"></rect><rect x="12.19" y="16.765" width="1.53" height="3.05" fill="#000000"></rect><rect x="10.67" y="22.855" width="1.52" height="1.53" fill="#000000"></rect><rect x="9.15" y="25.905" width="3.04" height="1.53" fill="#000000"></rect><rect x="7.62" y="27.435" width="1.53" height="1.52" fill="#000000"></rect><rect x="6.1" y="28.955" width="1.52" height="1.52" fill="#000000"></rect><rect x="3.05" y="13.715" width="1.52" height="1.53" fill="#000000"></rect><rect x="1.53" y="16.765" width="3.04" height="1.52" fill="#000000"></rect><rect y="18.285" width="1.53" height="1.53" fill="#000000"></rect></g></svg>