<svg xmlns="http://www.w3.org/2000/svg" viewBox="0 0 32 32" height="64" width="64"><title>money-payments-cash-payment-coin</title><g><rect x="7.62" y="29.715" width="12.19" height="1.52" fill="#ffffff"></rect><rect x="19.81" y="28.195" width="4.57" height="1.52" fill="#ffffff"></rect><polygon points="15.24 26.665 15.24 25.145 4.57 25.145 4.57 26.665 6.1 26.665 6.1 29.715 7.62 29.715 7.62 26.665 15.24 26.665" fill="#ffffff"></polygon><polygon points="12.19 22.095 12.19 20.575 1.53 20.575 1.53 22.095 3.05 22.095 3.05 25.145 4.57 25.145 4.57 22.095 12.19 22.095" fill="#ffffff"></polygon><rect y="17.525" width="1.53" height="3.05" fill="#ffffff"></rect><rect x="16.76" y="16.005" width="1.53" height="1.52" fill="#ffffff"></rect><rect x="4.57" y="16.005" width="6.1" height="1.52" fill="#ffffff"></rect><rect x="15.24" y="12.955" width="1.52" height="3.05" fill="#ffffff"></rect><rect x="10.67" y="14.475" width="1.52" height="1.53" fill="#ffffff"></rect><rect x="3.05" y="14.475" width="1.52" height="1.53" fill="#ffffff"></rect><polygon points="7.62 14.475 7.62 12.955 9.14 12.955 9.14 11.425 4.57 11.425 4.57 12.955 6.1 12.955 6.1 14.475 7.62 14.475" fill="#ffffff"></polygon><rect x="1.53" y="12.955" width="1.52" height="1.52" fill="#ffffff"></rect><rect x="13.72" y="9.905" width="1.52" height="3.05" fill="#ffffff"></rect><rect y="5.335" width="1.53" height="7.62" fill="#ffffff"></rect><path d="M27.43,9.9v1.52H25.91v1.53h1.52v13.71H24.38V28.2h3.05v1.52H32V9.9Zm3.05,16.76H28.95v-3.05h1.53Z" fill="#ffffff"></path><rect x="24.38" y="9.905" width="1.53" height="1.52" fill="#ffffff"></rect><rect x="9.14" y="9.905" width="1.53" height="1.52" fill="#ffffff"></rect><rect x="21.34" y="8.385" width="3.04" height="1.52" fill="#ffffff"></rect><rect x="12.19" y="8.385" width="1.53" height="1.52" fill="#ffffff"></rect><rect x="4.57" y="8.385" width="4.57" height="1.52" fill="#ffffff"></rect><rect x="19.81" y="6.855" width="1.53" height="1.53" fill="#ffffff"></rect><rect x="3.05" y="6.855" width="1.52" height="1.53" fill="#ffffff"></rect><rect x="18.29" y="5.335" width="1.52" height="1.52" fill="#ffffff"></rect><polygon points="9.14 6.855 9.14 5.335 7.62 5.335 7.62 3.815 6.1 3.815 6.1 5.335 4.57 5.335 4.57 6.855 9.14 6.855" fill="#ffffff"></polygon><rect x="16.76" y="3.815" width="1.53" height="1.52" fill="#ffffff"></rect><rect x="10.67" y="3.815" width="1.52" height="4.57" fill="#ffffff"></rect><rect x="1.53" y="3.815" width="1.52" height="1.52" fill="#ffffff"></rect><rect x="12.19" y="2.285" width="4.57" height="1.53" fill="#ffffff"></rect><rect x="3.05" y="2.285" width="1.52" height="1.53" fill="#ffffff"></rect><rect x="4.57" y="0.765" width="6.1" height="1.52" fill="#ffffff"></rect></g></svg>