<svg xmlns="http://www.w3.org/2000/svg" viewBox="0 0 32 32" height="32" width="32"><title>real-estate-building-3</title><g><rect x="30.48" y="10.66" width="1.52" height="1.53" fill="#000000"></rect><polygon points="30.48 21.33 25.91 21.33 25.91 22.85 24.39 22.85 24.39 27.43 25.91 27.43 25.91 28.95 27.43 28.95 27.43 32 28.96 32 28.96 28.95 30.48 28.95 30.48 27.43 32 27.43 32 22.85 30.48 22.85 30.48 21.33" fill="#000000"></polygon><rect x="28.96" y="9.14" width="1.52" height="1.52" fill="#000000"></rect><rect x="24.39" y="12.19" width="6.09" height="1.52" fill="#000000"></rect><rect x="25.91" y="7.62" width="3.05" height="1.52" fill="#000000"></rect><rect x="24.39" y="9.14" width="1.52" height="1.52" fill="#000000"></rect><rect x="22.86" y="10.66" width="1.53" height="1.53" fill="#000000"></rect><path d="M21.34,10.66H19.81V7.62h1.53V6.09H18.29V3.04H16.77V6.09H15.24V3.04H13.72V6.09H10.67V7.62h1.52v3.04H10.67V22.85H9.15V32H22.86V22.85H21.34ZM16.77,7.62h1.52v3.04H16.77Zm-3.05,0h1.52v3.04H13.72Zm-1.53,4.57h7.62V22.85H12.19Zm3.05,16.76H13.72V27.43h1.52Zm3.05,0H16.77V27.43h1.52Zm3.05,1.52H19.81V25.9H12.19v4.57H10.67V24.38H21.34Z" fill="#000000"></path><rect x="16.77" y="19.81" width="1.52" height="1.52" fill="#000000"></rect><rect x="16.77" y="16.76" width="1.52" height="1.52" fill="#000000"></rect><rect x="16.77" y="13.71" width="1.52" height="1.53" fill="#000000"></rect><rect x="15.24" width="1.53" height="3.04" fill="#000000"></rect><rect x="13.72" y="19.81" width="1.52" height="1.52" fill="#000000"></rect><rect x="13.72" y="16.76" width="1.52" height="1.52" fill="#000000"></rect><rect x="13.72" y="13.71" width="1.52" height="1.53" fill="#000000"></rect><rect x="7.62" y="4.57" width="1.53" height="1.52" fill="#000000"></rect><rect x="6.1" y="3.04" width="1.52" height="1.53" fill="#000000"></rect><polygon points="6.1 21.33 1.53 21.33 1.53 22.85 0 22.85 0 27.43 1.53 27.43 1.53 28.95 3.05 28.95 3.05 32 4.58 32 4.58 28.95 6.1 28.95 6.1 27.43 7.62 27.43 7.62 22.85 6.1 22.85 6.1 21.33" fill="#000000"></polygon><rect x="1.53" y="6.09" width="6.09" height="1.53" fill="#000000"></rect><rect x="3.05" y="1.52" width="3.05" height="1.52" fill="#000000"></rect><rect x="1.53" y="3.04" width="1.52" height="1.53" fill="#000000"></rect><rect y="4.57" width="1.53" height="1.52" fill="#000000"></rect></g></svg>