<svg xmlns="http://www.w3.org/2000/svg" viewBox="0 0 32 32" height="64" width="64"><title>real-estate-building-1</title><g><path d="M0,0V3.04H1.53V1.52H21.34V3.04H1.53v12.2H0v3.04H1.53V16.76H21.34v1.52H1.53V30.47H0V32H32V30.47H30.48V18.28H22.86V16.76h7.62v1.52H32V15.24H30.48V3.04H22.86V1.52h7.62V3.04H32V0ZM6.1,30.47V22.85h4.57v7.62Zm6.09,0V21.33H4.58v9.14H3.05V19.81H21.34V30.47ZM28.96,19.81V30.47h-6.1V19.81ZM3.05,15.24V4.57H21.34V15.24ZM28.96,4.57V15.24h-6.1V4.57Z" fill="#ffffff"></path><path d="M13.72,21.33v7.62h6.09V21.33Zm4.57,3.05H16.77V25.9H15.24V22.85h3.05v1.53Z" fill="#ffffff"></path><path d="M16.77,6.09H13.72v7.62h6.09V6.09Zm1.52,3.05H16.77v1.52H15.24V7.62h3.05V9.14Z" fill="#ffffff"></path><polygon points="7.62 27.43 9.15 27.43 9.15 25.9 7.62 25.9 7.62 27.43 7.62 27.43" fill="#ffffff"></polygon><path d="M4.58,6.09v7.62h6.09V6.09ZM9.15,9.14H7.62v1.52H6.1V7.62H9.15V9.14Z" fill="#ffffff"></path></g></svg>