<svg xmlns="http://www.w3.org/2000/svg" viewBox="0 0 32 32" height="64" width="64"><title>send-email</title><g><polygon points="18.29 6.1 18.29 7.62 16.77 7.62 16.77 10.67 18.29 10.67 18.29 9.14 19.81 9.14 19.81 7.62 30.48 7.62 30.48 9.14 28.96 9.14 28.96 10.67 30.48 10.67 30.48 12.19 32 12.19 32 6.1 18.29 6.1" fill="#000000"></polygon><rect x="28.96" y="12.19" width="1.52" height="3.05" fill="#000000"></rect><polygon points="27.43 16.76 15.24 16.76 15.24 15.24 13.72 15.24 13.72 18.29 28.96 18.29 28.96 15.24 27.43 15.24 27.43 16.76" fill="#000000"></polygon><rect x="27.43" y="10.67" width="1.53" height="1.52" fill="#000000"></rect><rect x="25.91" y="3.05" width="1.52" height="1.52" fill="#000000"></rect><polygon points="1.53 19.81 1.53 3.05 0 3.05 0 24.38 1.53 24.38 1.53 25.91 9.15 25.91 9.15 27.43 10.67 27.43 10.67 25.91 16.77 25.91 16.77 27.43 18.29 27.43 18.29 25.91 25.91 25.91 25.91 24.38 27.43 24.38 27.43 19.81 1.53 19.81" fill="#000000"></polygon><rect x="22.86" y="12.19" width="4.57" height="1.53" fill="#000000"></rect><rect x="21.34" y="10.67" width="1.52" height="1.52" fill="#000000"></rect><rect x="19.81" y="9.14" width="1.53" height="1.53" fill="#000000"></rect><polygon points="9.15 28.95 9.15 27.43 7.62 27.43 7.62 30.48 19.81 30.48 19.81 27.43 18.29 27.43 18.29 28.95 9.15 28.95" fill="#000000"></polygon><rect x="15.24" y="10.67" width="1.53" height="4.57" fill="#000000"></rect><rect x="9.15" y="10.67" width="4.57" height="1.52" fill="#000000"></rect><rect x="7.62" y="13.72" width="4.57" height="1.52" fill="#000000"></rect><rect x="7.62" y="7.62" width="4.57" height="1.52" fill="#000000"></rect><rect x="6.1" y="10.67" width="1.52" height="1.52" fill="#000000"></rect><rect x="4.57" y="13.72" width="1.53" height="1.52" fill="#000000"></rect><rect x="4.57" y="7.62" width="1.53" height="1.52" fill="#000000"></rect><rect x="1.53" y="1.52" width="24.38" height="1.53" fill="#000000"></rect></g></svg>