<svg xmlns="http://www.w3.org/2000/svg" viewBox="0 0 32 32" height="64" width="64"><title>interface-essential-refresh</title><g><rect x="27.43" y="12.19" width="1.52" height="7.62" fill="#000000"></rect><rect x="25.91" y="19.81" width="1.52" height="3.05" fill="#000000"></rect><rect x="25.91" y="9.14" width="1.52" height="3.05" fill="#000000"></rect><polygon points="27.43 7.62 27.43 6.1 28.95 6.1 28.95 4.57 21.33 4.57 21.33 12.19 22.86 12.19 22.86 10.67 24.38 10.67 24.38 9.14 25.91 9.14 25.91 7.62 27.43 7.62" fill="#000000"></polygon><rect x="24.38" y="22.86" width="1.53" height="1.52" fill="#000000"></rect><rect x="22.86" y="24.38" width="1.52" height="1.53" fill="#000000"></rect><rect x="19.81" y="25.91" width="3.05" height="1.52" fill="#000000"></rect><rect x="13.71" y="27.43" width="6.1" height="1.52" fill="#000000"></rect><rect x="12.19" y="3.05" width="6.1" height="1.52" fill="#000000"></rect><rect x="9.14" y="4.57" width="3.05" height="1.53" fill="#000000"></rect><rect x="7.62" y="6.1" width="1.52" height="1.52" fill="#000000"></rect><rect x="6.1" y="7.62" width="1.52" height="1.52" fill="#000000"></rect><polygon points="4.57 24.38 4.57 25.91 3.05 25.91 3.05 27.43 10.67 27.43 10.67 19.81 9.14 19.81 9.14 21.33 7.62 21.33 7.62 22.86 6.1 22.86 6.1 24.38 4.57 24.38" fill="#000000"></polygon><rect x="4.57" y="19.81" width="1.53" height="3.05" fill="#000000"></rect><rect x="4.57" y="9.14" width="1.53" height="3.05" fill="#000000"></rect><rect x="3.05" y="12.19" width="1.52" height="7.62" fill="#000000"></rect></g></svg>