<svg xmlns="http://www.w3.org/2000/svg" viewBox="0 0 32 32" height="64" width="64"><title>business-products-cash-search</title><g><path d="M29.72,23.62H28.19V22.09H26.67V20.57H25.15V17.52H23.62v3.05H22.1v1.52H20.57v1.53H17.53v1.52h3.04v1.53H22.1v1.52h1.52v1.52h1.53v1.53h4.57V29.71h1.52V25.14H29.72Zm0,4.57H28.19V26.67H26.67V25.14H25.15V23.62h1.52v1.52h1.52v1.53h1.53Z" fill="#000000"></path><rect x="25.15" y="9.9" width="1.52" height="7.62" fill="#000000"></rect><rect x="23.62" y="6.86" width="1.53" height="3.04" fill="#000000"></rect><rect x="22.1" y="5.33" width="1.52" height="1.53" fill="#000000"></rect><rect x="20.57" y="9.9" width="1.53" height="7.62" fill="#000000"></rect><rect x="20.57" y="3.81" width="1.53" height="1.52" fill="#000000"></rect><rect x="19.05" y="17.52" width="1.52" height="1.53" fill="#000000"></rect><rect x="19.05" y="8.38" width="1.52" height="1.52" fill="#000000"></rect><rect x="17.53" y="19.05" width="1.52" height="1.52" fill="#000000"></rect><rect x="17.53" y="6.86" width="1.52" height="1.52" fill="#000000"></rect><rect x="17.53" y="2.28" width="3.04" height="1.53" fill="#000000"></rect><rect x="9.91" y="20.57" width="7.62" height="1.52" fill="#000000"></rect><rect x="16" y="14.47" width="1.53" height="1.53" fill="#000000"></rect><rect x="9.91" y="25.14" width="7.62" height="1.53" fill="#000000"></rect><polygon points="11.43 16 11.43 17.52 12.96 17.52 12.96 19.05 14.48 19.05 14.48 17.52 16 17.52 16 16 11.43 16" fill="#000000"></polygon><polygon points="16 11.43 16 9.9 14.48 9.9 14.48 8.38 12.96 8.38 12.96 9.9 11.43 9.9 11.43 11.43 16 11.43" fill="#000000"></polygon><rect x="11.43" y="12.95" width="4.57" height="1.52" fill="#000000"></rect><rect x="9.91" y="5.33" width="7.62" height="1.53" fill="#000000"></rect><rect x="9.91" y="0.76" width="7.62" height="1.52" fill="#000000"></rect><rect x="9.91" y="11.43" width="1.52" height="1.52" fill="#000000"></rect><rect x="6.86" y="23.62" width="3.05" height="1.52" fill="#000000"></rect><rect x="8.38" y="19.05" width="1.53" height="1.52" fill="#000000"></rect><rect x="8.38" y="6.86" width="1.53" height="1.52" fill="#000000"></rect><rect x="6.86" y="2.28" width="3.05" height="1.53" fill="#000000"></rect><rect x="6.86" y="17.52" width="1.52" height="1.53" fill="#000000"></rect><rect x="6.86" y="8.38" width="1.52" height="1.52" fill="#000000"></rect><rect x="5.34" y="22.09" width="1.52" height="1.53" fill="#000000"></rect><rect x="5.34" y="9.9" width="1.52" height="7.62" fill="#000000"></rect><rect x="5.34" y="3.81" width="1.52" height="1.52" fill="#000000"></rect><rect x="3.81" y="20.57" width="1.53" height="1.52" fill="#000000"></rect><rect x="3.81" y="5.33" width="1.53" height="1.53" fill="#000000"></rect><rect x="2.29" y="17.52" width="1.52" height="3.05" fill="#000000"></rect><rect x="2.29" y="6.86" width="1.52" height="3.04" fill="#000000"></rect><rect x="0.76" y="9.9" width="1.53" height="7.62" fill="#000000"></rect></g></svg>