<svg xmlns="http://www.w3.org/2000/svg" viewBox="0 0 32 32" height="64" width="64"><title>ui-design-website</title><g><polygon points="30.48 7.625 1.53 7.625 1.53 3.055 0 3.055 0 28.955 1.53 28.955 1.53 9.145 30.48 9.145 30.48 28.955 32 28.955 32 3.055 30.48 3.055 30.48 7.625" fill="#000000"></polygon><rect x="1.53" y="28.955" width="28.95" height="1.52" fill="#000000"></rect><rect x="25.91" y="19.815" width="1.52" height="4.57" fill="#000000"></rect><rect x="24.38" y="24.385" width="1.53" height="1.52" fill="#000000"></rect><rect x="24.38" y="18.285" width="1.53" height="1.53" fill="#000000"></rect><rect x="19.81" y="25.905" width="4.57" height="1.53" fill="#000000"></rect><polygon points="24.38 18.285 24.38 16.765 22.86 16.765 22.86 10.675 4.57 10.675 4.57 19.815 7.62 19.815 7.62 18.285 6.1 18.285 6.1 12.195 21.34 12.195 21.34 16.765 19.81 16.765 19.81 18.285 24.38 18.285" fill="#000000"></polygon><rect x="18.29" y="24.385" width="1.52" height="1.52" fill="#000000"></rect><rect x="18.29" y="18.285" width="1.52" height="1.53" fill="#000000"></rect><rect x="16.76" y="19.815" width="1.53" height="4.57" fill="#000000"></rect><rect x="9.14" y="4.575" width="1.53" height="1.52" fill="#000000"></rect><polygon points="6.1 21.335 6.1 22.865 4.57 22.865 4.57 24.385 15.24 24.385 15.24 19.815 13.72 19.815 13.72 18.285 12.19 18.285 12.19 16.765 10.67 16.765 10.67 18.285 9.14 18.285 9.14 19.815 7.62 19.815 7.62 21.335 6.1 21.335" fill="#000000"></polygon><rect x="6.1" y="4.575" width="1.52" height="1.52" fill="#000000"></rect><rect x="3.05" y="4.575" width="1.52" height="1.52" fill="#000000"></rect><rect x="1.53" y="1.525" width="28.95" height="1.53" fill="#000000"></rect></g></svg>