<svg xmlns="http://www.w3.org/2000/svg" fill="none" viewBox="0 0 24 24" height="64" width="64"><path fill="#000000" d="M17.715 11.43V9.14249H16.575V11.43H15.4275V13.7175H16.575V14.8575H17.715V15.9975H21.1425V14.8575H22.2825V13.7175H23.43V11.43H22.2825V9.14249H21.1425V11.43H17.715Z"></path><path fill="#000000" d="M21.1425 6.85501H20.0025V9.14251H21.1425V6.85501Z"></path><path fill="#000000" d="M18.855 6.85501H20.0025V3.42751H21.1425V2.28751H18.855V3.42751H16.575V4.57501H18.855V6.85501Z"></path><path fill="#000000" d="M18.855 6.85501H17.715V9.14251H18.855V6.85501Z"></path><path fill="#000000" d="M9.7125 22.86V21.7125H8.5725V22.86H7.425V24H17.715V22.86H16.575V21.7125H15.4275V22.86H9.7125Z"></path><path fill="#000000" d="M16.575 4.57501H14.2875V5.71501H16.575V4.57501Z"></path><path fill="#000000" d="M14.2875 1.14001H13.14V2.28751H14.2875V1.14001Z"></path><path fill="#000000" d="M12 20.5725H9.7125V21.7125H15.4275V20.5725H13.14V6.85501H14.2875V5.71501H13.14V2.28751H12V6.85501H9.7125V8.00251H12V20.5725Z"></path><path fill="#000000" d="M13.14 0H12V1.14H13.14V0Z"></path><path fill="#000000" d="M12 1.14001H10.86V2.28751H12V1.14001Z"></path><path fill="#000000" d="M9.7125 8.0025H7.425V9.1425H9.7125V8.0025Z"></path><path fill="#000000" d="M2.8575 17.145V14.8575H1.7175V17.145H0.57V19.4325H1.7175V20.5725H2.8575V21.7125H6.285V20.5725H7.425V19.4325H8.5725V17.145H7.425V14.8575H6.285V17.145H2.8575Z"></path><path fill="#000000" d="M6.285 12.57H5.145V14.8575H6.285V12.57Z"></path><path fill="#000000" d="M7.425 9.14249H5.145V10.29H7.425V9.14249Z"></path><path fill="#000000" d="M3.9975 12.57H2.8575V14.8575H3.9975V12.57Z"></path><path fill="#000000" d="M5.145 12.57V10.29H2.8575V11.43H3.9975V12.57H5.145Z"></path></svg>