<svg xmlns="http://www.w3.org/2000/svg" viewBox="0 0 32 32" height="64" width="64"><title>content-files-archive-books-2</title><g><polygon points="30.48 27.43 24.39 27.43 24.39 1.52 30.48 1.52 30.48 0 4.58 0 4.58 1.52 22.86 1.52 22.86 9.14 18.29 9.14 18.29 10.67 22.86 10.67 22.86 15.24 21.34 15.24 21.34 16.76 18.29 16.76 18.29 15.24 16.77 15.24 16.77 16.76 12.2 16.76 12.2 13.72 10.67 13.72 10.67 16.76 3.05 16.76 3.05 13.72 1.53 13.72 1.53 16.76 0 16.76 0 27.43 1.53 27.43 1.53 18.29 15.24 18.29 15.24 27.43 1.53 27.43 1.53 28.95 3.05 28.95 3.05 32 4.58 32 4.58 28.95 22.86 28.95 22.86 32 24.39 32 24.39 28.95 30.48 28.95 30.48 32 32 32 32 1.52 30.48 1.52 30.48 27.43" fill="#000000"></polygon><rect x="10.67" y="4.57" width="6.1" height="1.53" fill="#000000"></rect><rect x="6.1" y="21.33" width="4.57" height="1.53" fill="#000000"></rect><rect x="3.05" y="1.52" width="1.53" height="6.1" fill="#000000"></rect><polygon points="9.15 10.67 9.15 13.72 10.67 13.72 10.67 12.19 15.24 12.19 15.24 15.24 16.77 15.24 16.77 13.72 19.81 13.72 19.81 15.24 21.34 15.24 21.34 12.19 16.77 12.19 16.77 10.67 10.67 10.67 10.67 9.14 0 9.14 0 13.72 1.53 13.72 1.53 10.67 9.15 10.67" fill="#000000"></polygon></g></svg>